<svg width="29" height="31" viewBox="0 0 29 31" fill="none" xmlns="http://www.w3.org/2000/svg">
<path d="M21.2056 29.4794H21.2157C21.2233 29.5248 18.5853 30.4276 15.8995 30.4225C13.1419 30.4225 10.4385 29.4568 10.446 29.4152C10.3705 29.3724 10.2975 29.3233 10.2194 29.2893C8.47777 28.4563 6.94576 27.2423 5.73676 25.7372C5.67535 25.6506 5.59304 25.581 5.4975 25.5348C5.40196 25.4885 5.29628 25.4672 5.19028 25.4728C3.7221 25.4841 2.25391 25.4791 0.783202 25.4728C0.162433 25.4728 0.00125917 25.3065 0 24.6845C0 23.793 0 22.9028 0 22.0113C0.00125917 21.529 0.187616 21.3427 0.676172 21.3427C3.95001 21.3427 7.22384 21.3477 10.4977 21.3578C11.7732 21.3578 13.0487 21.3452 14.3243 21.3427C14.979 21.3427 15.1453 21.5039 15.1465 22.1473C15.1465 23.0371 15.1465 23.9273 15.1465 24.818C15.1465 25.2461 14.945 25.4551 14.5094 25.4728C14.2966 25.4816 14.0838 25.4728 13.871 25.4728L13.8609 25.5911C14.3646 25.6604 14.8569 25.7611 15.3593 25.7938C17.1551 25.9108 18.9403 25.4408 20.4457 24.4546C21.951 23.4684 23.095 22.0196 23.7051 20.3265C25.4389 15.6009 22.4686 10.3577 17.4986 9.4058C15.0798 8.94242 12.8737 9.47757 10.8842 10.9244C10.7743 10.9929 10.6851 11.0901 10.6262 11.2054C10.5672 11.3207 10.5406 11.4499 10.5493 11.5791C10.5682 12.8899 10.5581 14.202 10.5569 15.5128C10.5569 16.034 10.3869 16.2141 9.87942 16.2154C8.30294 16.2154 6.72689 16.2154 5.15125 16.2154C4.7735 16.2154 4.55441 15.9799 4.55567 15.5984C4.55567 13.1443 4.56952 10.6876 4.56952 8.23603C4.56952 6.35861 4.55818 4.48246 4.55441 2.6063C4.55441 1.95405 4.72439 1.78784 5.38797 1.78658C6.84231 1.78658 8.29665 1.77273 9.75099 1.76895C10.3906 1.76895 10.5569 1.93894 10.5569 2.58111V5.57793C14.6315 3.94101 18.6029 4.05182 22.4308 6.22011C25.0106 7.65742 27.002 9.95725 28.0555 12.7161C29.3298 15.9572 29.3147 19.226 28.0102 22.4495C26.7057 25.673 24.4064 27.9659 21.2056 29.4794Z" fill="#333333"/>
<path d="M7.59273 0.00111926C8.25379 0.00111926 8.91485 0.00111926 9.57592 0.00111926C9.94233 0.00111926 10.1778 0.206363 10.1841 0.516118C10.1841 0.849798 9.9587 1.09282 9.58347 1.09534C8.22441 1.10289 6.86619 1.10289 5.50881 1.09534C5.43334 1.10101 5.35753 1.09029 5.28658 1.06393C5.21564 1.03757 5.15123 0.996183 5.09777 0.942606C5.04431 0.889028 5.00307 0.824528 4.97687 0.753523C4.95067 0.682518 4.94012 0.606688 4.94596 0.531228C4.95478 0.197549 5.16632 0.00363759 5.53651 0.00111926C6.22276 -0.00139907 6.90774 0.00111926 7.59273 0.00111926Z" fill="#333333"/>
<path d="M7.61669 16.8916C8.00199 16.8916 8.3873 16.884 8.77134 16.8916C9.12013 16.9004 9.3216 17.1019 9.32663 17.4192C9.33103 17.4946 9.31941 17.57 9.29255 17.6406C9.26569 17.7112 9.2242 17.7753 9.1708 17.8287C9.1174 17.8821 9.0533 17.9236 8.98271 17.9504C8.91213 17.9773 8.83666 17.9889 8.76127 17.9845C7.95624 17.9921 7.15163 17.9921 6.34745 17.9845C6.20139 17.988 6.05983 17.934 5.95317 17.8341C5.84651 17.7343 5.78327 17.5966 5.77704 17.4506C5.77412 17.3781 5.78603 17.3057 5.81203 17.238C5.83802 17.1702 5.87757 17.1084 5.92825 17.0565C5.97892 17.0045 6.03967 16.9634 6.10676 16.9357C6.17386 16.908 6.2459 16.8943 6.31848 16.8953C6.75038 16.8777 7.18353 16.8953 7.61669 16.8953V16.8916Z" fill="#333333"/>
</svg>
