<svg width="18" height="29" viewBox="0 0 18 29" fill="none" xmlns="http://www.w3.org/2000/svg">
<path d="M17.144 19.568C17.144 20.6773 16.856 21.7227 16.28 22.704C15.7253 23.664 14.8933 24.464 13.784 25.104C12.696 25.7227 11.4053 26.0853 9.912 26.192V28.784H7.864V26.16C5.73067 25.968 4.01333 25.328 2.712 24.24C1.41067 23.1307 0.738667 21.6373 0.696 19.76H5.496C5.624 21.296 6.41333 22.224 7.864 22.544V16.432C6.328 16.048 5.09067 15.664 4.152 15.28C3.21333 14.896 2.40267 14.2773 1.72 13.424C1.03733 12.5707 0.696 11.408 0.696 9.936C0.696 8.08 1.35733 6.56533 2.68 5.392C4.024 4.21866 5.752 3.54667 7.864 3.376V0.783998H9.912V3.376C11.96 3.54667 13.592 4.16533 14.808 5.232C16.0453 6.29867 16.7387 7.77067 16.888 9.648H12.056C11.992 9.02933 11.768 8.496 11.384 8.048C11.0213 7.57867 10.5307 7.248 9.912 7.056V13.104C11.512 13.5093 12.7707 13.904 13.688 14.288C14.6267 14.6507 15.4373 15.2587 16.12 16.112C16.8027 16.944 17.144 18.096 17.144 19.568ZM5.368 9.712C5.368 10.416 5.58133 10.992 6.008 11.44C6.43467 11.8667 7.05333 12.2187 7.864 12.496V6.96C7.096 7.06667 6.488 7.35467 6.04 7.824C5.592 8.29333 5.368 8.92267 5.368 9.712ZM9.912 22.608C10.7227 22.4587 11.352 22.128 11.8 21.616C12.2693 21.104 12.504 20.4853 12.504 19.76C12.504 19.056 12.28 18.4907 11.832 18.064C11.384 17.6373 10.744 17.2853 9.912 17.008V22.608Z" fill="white"/>
</svg>
