<svg width="43" height="43" viewBox="0 0 43 43" fill="none" xmlns="http://www.w3.org/2000/svg">
<path d="M26.875 8.95834V20.9575C26.875 21.3112 26.9797 21.6571 27.1758 21.9513L35.768 34.8395C36.5618 36.0302 35.7083 37.625 34.2773 37.625H8.72278C7.29178 37.625 6.43825 36.0302 7.23203 34.8395L15.8241 21.9513C16.0203 21.6571 16.125 21.3112 16.125 20.9575V8.95834" stroke="white" stroke-width="2" stroke-linejoin="round"/>
<path d="M30.2792 32.6083L26.5167 27.5917C26.1782 27.1405 25.6473 26.875 25.0833 26.875H17.9167C17.3527 26.875 16.8217 27.1405 16.4833 27.5917L12.7208 32.6083C12.2779 33.1989 12.6993 34.0417 13.4375 34.0417H29.5625C30.3007 34.0417 30.7221 33.1989 30.2792 32.6083Z" fill="white"/>
<path d="M12.5416 8.95834H30.4583" stroke="white" stroke-width="2" stroke-linecap="round" stroke-linejoin="round"/>
</svg>
