<svg width="36" height="38" viewBox="0 0 36 38" fill="none" xmlns="http://www.w3.org/2000/svg">
<path d="M9.17008 14.9434C7.49466 14.9434 6.11328 16.154 6.11328 17.6604C6.11328 19.1668 7.46529 20.3774 9.17008 20.3774C10.8745 20.3774 12.2265 19.1668 12.2265 17.6604C12.2265 16.154 10.8451 14.9434 9.17008 14.9434ZM9.17008 19.3283C8.1411 19.3283 7.28909 18.575 7.28909 17.6873C7.28909 16.7996 8.1411 16.0464 9.17008 16.0464C10.1987 16.0464 11.0507 16.7996 11.0507 17.6873C11.0507 18.575 10.1987 19.3283 9.17008 19.3283Z" fill="white"/>
<path d="M8.15088 25.1321C8.15088 26.6385 9.50258 27.8491 11.2075 27.8491C12.912 27.8491 14.2641 26.6385 14.2641 25.1321C14.2641 23.6256 12.912 22.4151 11.2075 22.4151C9.50258 22.4151 8.15088 23.6256 8.15088 25.1321ZM13.0886 25.1321C13.0886 26.0467 12.2361 26.773 11.2075 26.773C10.1788 26.773 9.32638 26.0198 9.32638 25.1321C9.32638 24.2444 10.1788 23.4911 11.2075 23.4911C12.2361 23.4911 13.0886 24.2175 13.0886 25.1321Z" fill="white"/>
<path d="M20.3773 30.2264C20.3773 28.5317 19.1755 27.1698 17.6603 27.1698C16.1449 27.1698 14.9434 28.5317 14.9434 30.2264C14.9434 31.9212 16.1449 33.283 17.6603 33.283C19.1755 33.283 20.3773 31.9212 20.3773 30.2264ZM16.0143 30.2264C16.0143 29.1975 16.7721 28.3804 17.6864 28.3804C18.6008 28.3804 19.3582 29.2277 19.3582 30.2264C19.3582 31.2251 18.6008 32.0725 17.6864 32.0725C16.746 32.1028 16.0143 31.2554 16.0143 30.2264Z" fill="white"/>
<path d="M15.6461 12.2264C16.0518 11.6562 16.3019 10.9518 16.3019 10.1803C16.3019 8.30188 14.8652 6.79245 13.054 6.79245C12.2106 6.79245 11.4612 7.12788 10.8679 7.69811C11.3052 7.73165 11.7109 7.96645 12.0234 8.30188L12.117 8.40251C12.3983 8.2348 12.7103 8.16771 13.054 8.16771C14.147 8.16771 15.0528 9.10692 15.0528 10.2138C15.0528 10.6163 14.9276 10.9853 14.7716 11.2872L15.6461 12.2264Z" fill="white"/>
<path d="M0.504405 1.43904C0.179694 1.46848 -0.02669 1.76289 0.00279346 2.08673C0.0322768 2.38114 0.297628 2.58722 0.592855 2.58722C1.97976 3.11715 2.51085 4.67749 3.10091 6.29672C3.86787 8.41643 4.78265 11.0072 8.02857 11.0072C8.08754 11.0072 8.17599 11.0072 8.23496 11.0072C8.20547 11.0661 8.20547 11.1544 8.20547 11.2133C8.20547 11.3605 8.26444 11.5077 8.38238 11.6254L33.4335 36.1493C33.7877 36.5026 34.2598 36.6792 34.6726 36.6792C35.0267 36.6792 35.3809 36.5615 35.6168 36.2965C36.1774 35.7372 36.1184 34.7656 35.4694 34.0885L10.8609 9.123C10.7725 9.00524 10.6251 8.94635 10.4478 8.94635C10.4183 8.94635 10.3593 8.94635 10.3299 8.94635C9.23818 4.11812 5.01891 0.791354 0.504405 1.43904ZM16.8508 16.8658L34.6136 34.9128C34.8204 35.1189 34.8498 35.3839 34.7909 35.4722C34.702 35.5605 34.4662 35.5311 34.2303 35.325L16.1428 17.5724L16.8508 16.8658ZM10.4478 10.3889L16.0245 16.0415L15.287 16.7775L9.62186 11.2133L10.4478 10.3889ZM4.19258 5.91399C3.77942 4.73637 3.33678 3.49987 2.54033 2.61666C5.81535 3.05827 8.61864 5.91399 9.26766 9.68237C5.81535 10.3889 5.10736 8.38699 4.19258 5.91399Z" fill="white"/>
<path d="M30.217 14.687C30.2467 14.687 30.276 14.687 30.3053 14.687L30.7746 14.5698C30.9211 14.5405 31.0677 14.4232 31.1556 14.3059L32.6808 11.7262C33.4729 10.3777 34.2943 8.99984 34.0887 7.2116C33.9129 5.71651 32.9743 4.28006 31.4198 3.10744C28.868 1.17262 25.1721 0 21.7407 0C17.1061 0 12.8241 1.61235 9.50952 4.28006C9.74438 4.57321 9.97884 4.89568 10.184 5.24747C13.3227 2.69702 17.3703 1.17262 21.7407 1.17262C24.9376 1.17262 28.3401 2.25729 30.657 4.01622C31.5663 4.69047 32.6808 5.83378 32.8863 7.32886C33.0622 8.70669 32.417 9.82068 31.6542 11.1106L30.276 13.4851L30.0704 13.5437C28.3401 13.6903 26.7563 14.5111 25.7 15.7717C24.7618 16.8857 24.3218 18.2635 24.439 19.6707C24.5269 20.5794 24.8497 21.4296 25.3483 22.1332L26.7563 23.5403C27.8708 24.3611 29.308 24.8009 30.8332 24.7422L31.1263 25.094C31.3904 25.4458 31.7128 25.8269 32.0356 26.208C32.9743 27.322 34.1474 28.6998 34.1474 29.8138C34.1474 30.2242 34.118 30.6053 34.0301 30.9571L34.9688 31.9245C35.2032 31.2796 35.3208 30.576 35.3208 29.8138C35.3208 28.2601 34.0301 26.765 32.9156 25.4458C32.5929 25.0647 32.2705 24.6836 32.0356 24.3611L32.0063 24.3318L31.4784 23.7455C31.3611 23.5989 31.1849 23.5403 30.9797 23.5403C28.2225 23.7748 25.7883 21.9573 25.5828 19.5241C25.4949 18.4394 25.8469 17.3547 26.58 16.4753C27.4601 15.4786 28.7801 14.8043 30.217 14.687Z" fill="white"/>
<path d="M4.54527 10.8679C3.38416 13.2762 2.7168 15.9455 2.7168 18.789C2.7168 29.0312 11.278 37.3585 21.8131 37.3585C23.7866 37.3585 28.0235 37.1554 31.2451 35.5596L30.3744 34.6891C27.2982 36.0818 23.2642 36.1979 21.8421 36.1979C11.9458 36.1979 3.90691 28.3929 3.90691 18.789C3.90691 16.2357 4.48727 13.7984 5.50301 11.6223C5.12564 11.3902 4.80626 11.1581 4.54527 10.8679Z" fill="white"/>
</svg>
