<svg width="42" height="42" viewBox="0 0 42 42" fill="none" xmlns="http://www.w3.org/2000/svg">
<path d="M21 22.75C24.866 22.75 28 19.616 28 15.75C28 11.884 24.866 8.75 21 8.75C17.134 8.75 14 11.884 14 15.75C14 19.616 17.134 22.75 21 22.75Z" fill="white"/>
<path d="M29.75 21C32.6495 21 35 18.6495 35 15.75C35 12.8505 32.6495 10.5 29.75 10.5C26.8505 10.5 24.5 12.8505 24.5 15.75C24.5 18.6495 26.8505 21 29.75 21Z" fill="white"/>
<path d="M12.25 21C15.1495 21 17.5 18.6495 17.5 15.75C17.5 12.8505 15.1495 10.5 12.25 10.5C9.35051 10.5 7 12.8505 7 15.75C7 18.6495 9.35051 21 12.25 21Z" fill="white"/>
<path fill-rule="evenodd" clip-rule="evenodd" d="M30.7448 31.5H34.8162C35.8517 31.5 36.6455 30.6077 36.394 29.6034C35.7496 27.0302 34.0339 22.75 29.7499 22.75C28.1994 22.75 26.9851 23.3109 26.0366 24.1484C28.6751 25.8603 30.0394 28.8579 30.7448 31.5Z" fill="white"/>
<path fill-rule="evenodd" clip-rule="evenodd" d="M15.9634 24.1484C15.0148 23.3109 13.8006 22.75 12.25 22.75C7.96611 22.75 6.25037 27.0302 5.60597 29.6034C5.35446 30.6077 6.14833 31.5 7.18368 31.5H11.2552C11.9606 28.8579 13.3249 25.8603 15.9634 24.1484Z" fill="white"/>
<path d="M21 24.5C27.4902 24.5 29.1663 30.2767 29.5993 33.2607C29.7381 34.217 28.9665 35 28 35H14C13.0335 35 12.2619 34.217 12.4007 33.2607C12.8336 30.2767 14.5098 24.5 21 24.5Z" fill="white"/>
</svg>
