<svg width="40" height="40" viewBox="0 0 40 40" fill="none" xmlns="http://www.w3.org/2000/svg">
<path d="M19.9999 36.6667C29.2047 36.6667 36.6666 29.2048 36.6666 20C36.6666 10.7953 29.2047 3.33334 19.9999 3.33334C10.7952 3.33334 3.33325 10.7953 3.33325 20C3.33325 29.2048 10.7952 36.6667 19.9999 36.6667Z" stroke="white" stroke-width="2" stroke-linecap="round"/>
<path d="M13.1355 26.2598C13.9566 26.971 15.0386 27.4848 16.2045 27.8213C17.3836 28.1617 18.6904 28.3333 20.0001 28.3333C21.3098 28.3333 22.6166 28.1617 23.7958 27.8213C24.9616 27.4848 26.0436 26.971 26.8648 26.2598" stroke="white" stroke-width="2" stroke-linecap="round"/>
<path d="M15.0001 18.75C16.1507 18.75 17.0834 17.8173 17.0834 16.6667C17.0834 15.5161 16.1507 14.5833 15.0001 14.5833C13.8495 14.5833 12.9167 15.5161 12.9167 16.6667C12.9167 17.8173 13.8495 18.75 15.0001 18.75Z" fill="white" stroke="white" stroke-width="0.5" stroke-linecap="round"/>
<path d="M25.0001 18.75C26.1507 18.75 27.0834 17.8173 27.0834 16.6667C27.0834 15.5161 26.1507 14.5833 25.0001 14.5833C23.8495 14.5833 22.9167 15.5161 22.9167 16.6667C22.9167 17.8173 23.8495 18.75 25.0001 18.75Z" fill="white" stroke="white" stroke-width="0.5" stroke-linecap="round"/>
</svg>
