<svg width="28" height="32" viewBox="0 0 28 32" fill="none" xmlns="http://www.w3.org/2000/svg">
<path d="M14.0001 17.4758C14.9101 17.4758 15.6477 16.7382 15.6477 15.8282C15.6477 14.9183 14.9101 14.1807 14.0001 14.1807C13.0902 14.1807 12.3525 14.9183 12.3525 15.8282C12.3525 16.7382 13.0902 17.4758 14.0001 17.4758Z" fill="white"/>
<path d="M18.9429 15.8283C18.9429 20.222 18.2275 24.1238 17.1305 26.8666C16.5801 28.2425 15.966 29.2454 15.3683 29.8772C14.774 30.5058 14.311 30.6565 14.0001 30.6565C13.6892 30.6565 13.2263 30.5058 12.632 29.8772C12.0342 29.2454 11.4202 28.2425 10.8697 26.8666C9.77274 24.1238 9.05737 20.222 9.05737 15.8283C9.05737 11.4345 9.77274 7.53262 10.8697 4.78997C11.4202 3.41409 12.0342 2.41121 12.632 1.77924C13.2263 1.15075 13.6892 1 14.0001 1C14.311 1 14.774 1.15075 15.3683 1.77924C15.966 2.41121 16.5801 3.41409 17.1305 4.78997C18.2275 7.53262 18.9429 11.4345 18.9429 15.8283Z" stroke="white" stroke-width="2"/>
<path d="M16.4713 20.109C12.6662 22.3057 8.92943 23.6373 6.00571 24.0584C4.53898 24.2698 3.36338 24.2393 2.51726 24.0378C1.67581 23.8373 1.31378 23.5117 1.15833 23.2425C1.00287 22.9731 0.901968 22.497 1.14907 21.6679C1.39754 20.8344 1.95899 19.801 2.87538 18.6365C4.70204 16.3151 7.72351 13.7447 11.5286 11.5478C15.3337 9.35092 19.0705 8.01949 21.9942 7.59825C23.461 7.38693 24.6366 7.41733 25.4826 7.61893C26.3242 7.81942 26.6862 8.14494 26.8417 8.4142C26.9971 8.68348 27.0981 9.15973 26.8509 9.98872C26.6025 10.8223 26.041 11.8556 25.1246 13.0201C23.2979 15.3415 20.2764 17.9121 16.4713 20.109Z" stroke="white" stroke-width="2"/>
<path d="M16.4713 11.5476C12.6662 9.35074 8.92943 8.01931 6.00571 7.59807C4.53898 7.38674 3.36338 7.41715 2.51726 7.61875C1.67581 7.81925 1.31378 8.14474 1.15833 8.41402C1.00287 8.68329 0.901968 9.15956 1.14907 9.98854C1.39754 10.8221 1.95899 11.8554 2.87538 13.02C4.70204 15.3414 7.72351 17.9118 11.5286 20.1087C15.3337 22.3056 19.0705 23.637 21.9942 24.0583C23.461 24.2695 24.6366 24.2392 25.4826 24.0375C26.3242 23.837 26.6862 23.5116 26.8417 23.2423C26.9971 22.973 27.0981 22.4967 26.8509 21.6678C26.6025 20.8341 26.041 19.8009 25.1246 18.6364C23.2979 16.315 20.2764 13.7444 16.4713 11.5476Z" stroke="white" stroke-width="2"/>
</svg>
